# xmcd
#
# Track frame offsets:
#	150
#	17247
#	33162
#	49080
#	66421
#	82725
#	98613
#	113740
#	130685
#	144620
#	163834
#	182060
#	197759
#	212771
#	228074
#	243401
#	260750
#	276185
#	293158
#	308075
#
# Disc length: 4349 seconds
#
# Revision: 1
# Processed by: cddbd v1.5.2PL0 Copyright (c) Steve Scherf et al.
# Submitted via: audiograbber 1.83.01
#
DISCID=1910fb14
DTITLE=Various Artist - Die Hitpiraten Schlager-CD02
DYEAR=2015
DGENRE=Discofox
TTITLE0=Wolke 7 - Wolkenfrei
TTITLE1=Warum hast Du nicht nein gesagt - Roland Kaiser and Maite Kelly
TTITLE2=Rettungsboot - Achim Petry
TTITLE3=Dann geht es Dir ganz genau wie mir(Fox Mix) - Frank Lukas feat.Lene Pa
TTITLE3=pillon
TTITLE4=Diesen Weg - Stefan Peters
TTITLE5=Nicht ein Wort davon ist war - Tmmy Fischer
TTITLE6=Ich lieg so da - Jörg Bausch
TTITLE7=Himmel auf Erden(Fox Mix) - Andrea Berg
TTITLE8=Komm und tanz - Hansi Hinterseer
TTITLE9=Sommer in der Stadt - Foxpiraten
TTITLE10=Ich träume immer noch von Dir - Andreas Oscar
TTITLE11=Himmel und Hölle Gefühl - Krümel
TTITLE12=Wovon träumst Du - Michael Wendler
TTITLE13=Au revoir and C'est la vie - Glasherz
TTITLE14=Buongiorno Amore - Charly Brunner and Simone
TTITLE15=Midnight Lady(Deutsch Englisch Discomix) - Der Bürgermeister
TTITLE16=Prinzessin - Sabrina Berger
TTITLE17=Auf den Straßen von Berlin - DJ Dmic feat.Oxana and Denny Fabian
TTITLE18=Verdammt(Dance Mix) - Marry
TTITLE19=Au Revoir, Cherie - Norman Langen
EXTD=
EXTT0=
EXTT1=
EXTT2=
EXTT3=
EXTT4=
EXTT5=
EXTT6=
EXTT7=
EXTT8=
EXTT9=
EXTT10=
EXTT11=
EXTT12=
EXTT13=
EXTT14=
EXTT15=
EXTT16=
EXTT17=
EXTT18=
EXTT19=
PLAYORDER=
